<?xml version="1.0" standalone="no"?><!DOCTYPE svg PUBLIC "-//W3C//DTD SVG 1.1//EN" "http://www.w3.org/Graphics/SVG/1.1/DTD/svg11.dtd"><svg t="1710600376596" class="icon" viewBox="0 0 1024 1024" version="1.1" xmlns="http://www.w3.org/2000/svg" p-id="2856" xmlns:xlink="http://www.w3.org/1999/xlink" width="200" height="200"><path d="M527.67067 475.222504a31.346772 31.346772 0 0 1-22.15172-9.195054l-104.489241-104.489241a31.346772 31.346772 0 0 1 44.303438-44.303438l104.489242 104.489241a31.346772 31.346772 0 0 1-22.151719 53.498492z" fill="#3399FF" p-id="2857"></path><path d="M527.67067 475.222504a31.346772 31.346772 0 0 1-22.15172-53.498492l104.489242-104.489241a31.346772 31.346772 0 0 1 44.303438 44.303438l-104.489241 104.489241a31.346772 31.346772 0 0 1-22.151719 9.195054z" fill="#3399FF" p-id="2858"></path><path d="M657.446307 494.030567H398.10401a31.346772 31.346772 0 0 1 0-62.693545h259.133319a31.346772 31.346772 0 0 1 0 62.693545zM657.446307 617.327872H398.10401a31.346772 31.346772 0 0 1 0-62.693545h259.133319a31.346772 31.346772 0 0 1 0 62.693545z" fill="#3399FF" p-id="2859"></path><path d="M527.67067 716.174695a31.346772 31.346772 0 0 1-31.346773-31.346773V462.683795a31.346772 31.346772 0 0 1 62.693545 0v222.144127a31.346772 31.346772 0 0 1-31.346772 31.346773z" fill="#3399FF" p-id="2860"></path><path d="M511.997283 1024c-16.718279 0-33.645536 0-50.781771-2.507742l-17.97215-1.671828-7.523225-16.718278c-51.826664-113.684295-104.489241-136.044992-219.00945-91.950533l-17.136236 6.687312-14.210537-11.702795a517.012767 517.012767 0 0 1-67.918007-67.918007l-11.702795-14.210537 6.687312-17.136236c44.09446-113.893273 20.897848-167.182786-91.950533-219.00945l-16.300321-7.105268-1.671828-17.97215C0 545.648252 0 528.720995 0 512.002717s0-33.645536 2.507742-50.781772l1.671828-17.972149 16.718278-7.523226c113.684295-51.826664 136.044992-104.489241 91.950533-219.00945l-6.687312-17.136235 11.702795-14.210537a517.012767 517.012767 0 0 1 67.709029-67.709029l14.210537-11.702795 17.136235 6.687312c113.893273 44.09446 167.182786 20.897848 219.00945-91.950533l7.314247-16.5093 17.97215-1.671828a514.296047 514.296047 0 0 1 101.563543 0l17.972149 1.671828 7.523226 16.5093c51.826664 113.684295 104.489241 136.044992 219.00945 91.950533l17.136235-6.687312 14.210537 11.702795a517.012767 517.012767 0 0 1 67.918007 67.918007l11.702795 14.210537-6.687311 17.136236c-44.09446 113.893273-20.897848 167.182786 91.950532 219.00945l16.5093 7.523225 1.671828 17.97215c1.671828 16.927257 2.507742 34.063493 2.507742 50.781771s0 33.645536-2.507742 50.781772l-1.671828 17.972149-16.5093 7.523225c-113.684295 51.826664-136.044992 104.489241-91.950532 219.009451l6.687311 17.136235-11.702795 14.210537a517.012767 517.012767 0 0 1-67.918007 67.918007l-14.210537 11.702795-17.136235-6.687311c-113.893273-44.09446-167.182786-20.897848-219.00945 91.950532l-7.523226 16.5093-17.972149 1.671828c-17.136236 2.089785-34.063493 2.089785-50.781772 2.089785z m-27.167203-62.693545a438.854814 438.854814 0 0 0 54.334406 0c62.693545-125.38709 143.150261-159.032626 272.925899-114.102252a452.856373 452.856373 0 0 0 34.48145-34.481449C801.432482 682.32018 835.913932 601.445507 961.301022 539.16992v-27.167203-27.167203c-125.38709-62.693545-159.032626-143.150261-114.102252-272.925899a452.856373 452.856373 0 0 0-35.108385-34.272471C682.314747 222.567518 601.440074 188.086068 539.164486 62.698978a438.854814 438.854814 0 0 0-54.334406 0c-62.693545 125.38709-143.150261 159.032626-272.925898 114.102252a452.856373 452.856373 0 0 0-34.272471 35.108385C222.562084 341.685253 188.080635 422.559926 62.693545 484.835514v54.334406c125.38709 62.693545 159.032626 143.150261 114.102252 272.925898a452.856373 452.856373 0 0 0 34.481449 34.48145C341.67982 801.437916 422.554493 835.919365 484.83008 961.306455z" fill="#333333" p-id="2861"></path></svg>