<svg t="1712910592121" class="icon" viewBox="0 0 1024 1024" version="1.1" xmlns="http://www.w3.org/2000/svg" p-id="5776" width="16" height="16"><path d="M893.401237 0H130.577385C79.934479 0.021933 38.920086 41.043637 38.905464 91.693854v840.619603c0.014622 50.635595 41.029015 91.6573 91.671921 91.671921l468.112406 0.014622h294.718757c50.635595-0.029244 91.642678-41.036326 91.671922-91.701165V91.693854C985.051226 41.029015 944.036832 0.021933 893.401237 0zM175.313049 963.911355h-44.735664a31.619831 31.619831 0 0 1-31.575965-31.597898V91.693854a31.641764 31.641764 0 0 1 31.575965-31.61252h44.735664v903.830021z m749.671465-31.61252a31.641764 31.641764 0 0 1-31.575966 31.627142H695.450129l-0.073109-0.014622H237.894726V60.074023h655.513822a31.641764 31.641764 0 0 1 31.575966 31.61252v840.612292z m-498.971899-543.407814v67.816313c0 11.383139 10.037926 13.678775 26.224355 13.678775 13.474069 0 27.247887-1.623029 27.247886-13.678775v-67.999086l0.504455 0.014622 6.74069 0.175462 2.412612 0.043866c48.208362 1.206306 64.212017 1.462189 69.183459 1.462189 8.59767 0 14.790039-1.930089 18.408956-5.702536 3.202193-3.348412 4.671693-8.553804 4.357322-15.469957-0.614119-14.029701-6.864976-20.30249-20.295179-20.30249H479.477545v-54.583505h81.305004c14.980123 0 20.295179-13.591044 20.295179-25.230066 0-14.029701-7.354809-21.457619-21.245602-21.45762h-73.694311l0.870002-0.870002 11.266164-11.171122 54.378798-53.874343a25.10578 25.10578 0 0 0 0.014622-35.326479 24.418552 24.418552 0 0 0-17.465844-7.296322c-6.579849 0-12.779529 2.588074-17.4366 7.2817l-60.154444 60.585789-4.64976 4.679004-0.358236 0.358236-0.365547-0.372858-4.649761-4.64976-57.800319-58.224354-2.310259-2.346813a24.520905 24.520905 0 0 0-17.495088-7.310944c-6.243546 0-12.026502 2.295636-16.734749 6.66027l-0.453279 0.409413-0.321681 0.541009a12.282385 12.282385 0 0 1-1.089331 1.608408c-8.305232 10.045236-7.800777 24.40393 1.140507 33.39639l17.831392 17.97761 38.616404 35.743204 12.223897 11.310029 0.957734 0.884624H347.588123c-13.890793 0-21.245602 7.427919-21.245602 21.45762 0 21.326022 6.185058 25.230066 18.365091 25.230066h81.305003v54.583505H344.707612c-15.323738 0-18.935344 5.161526-20.017364 14.673063 0.029244 1.038154 0.029244 2.726982 0.029244 5.293124 0 13.817683 6.170436 19.980809 19.98812 19.980808h81.305003z m252.271419-28.907471h108.78684c18.913411 0 34.317569-15.404158 34.317569-34.32488s-15.404158-34.310258-34.317569-34.310258h-108.78684c-18.935344 0-34.354124 15.389536-34.354124 34.310258s15.41878 34.32488 34.354124 34.32488z m108.78684 377.339731H378.549969a34.361435 34.361435 0 0 0-34.339502 34.302947 34.361435 34.361435 0 0 0 34.339502 34.32488h408.528216a34.361435 34.361435 0 0 0 34.332191-34.32488 34.368746 34.368746 0 0 0-34.339502-34.302947z m0.014622-187.664611H378.528037a34.376057 34.376057 0 0 0-34.332191 34.339502 34.368746 34.368746 0 0 0 34.332191 34.317569h408.56477a34.368746 34.368746 0 0 0 34.32488-34.317569 34.383368 34.383368 0 0 0-34.332191-34.339502z" p-id="5777" fill="#1296db"></path></svg>